<svg width="192" height="192" viewBox="0 0 192 192" fill="none" xmlns="http://www.w3.org/2000/svg">
<rect width="192" height="192" fill="url(#paint0_linear_78_237)"/>
<path d="M112.227 117.424L70.5 46.2651H36.5L42.6818 57.7424H63.5455L98.3182 117.424L95.2273 122.78L75.9091 90.6439H62L95.2273 146.5L112.227 117.424Z" fill="white"/>
<path d="M95.2273 74.5757C89.5606 65.3939 78.2273 46.8773 78.2273 46.2651H112.227L95.2273 74.5757Z" fill="white"/>
<path d="M118.409 45.5L98.3181 79.9318L105.273 92.1742L115.318 76.1061H120.727L121.5 78.4015L109.136 99.8258L116.864 111.303L136.954 76.1061L134.636 70.75L144.682 63.0985L155.5 45.5H140.818L133.864 59.2727L126.909 63.8636H122.273L132.318 45.5H118.409Z" fill="white"/>
<defs>
<linearGradient id="paint0_linear_78_237" x1="0" y1="96" x2="192" y2="96" gradientUnits="userSpaceOnUse">
<stop stop-color="#0303B5"/>
<stop offset="1" stop-color="#0340B5"/>
</linearGradient>
</defs>
</svg>
