<svg width="512" height="512" viewBox="0 0 512 512" fill="none" xmlns="http://www.w3.org/2000/svg">
<path d="M323.909 345.303L149.286 48.6894H7L32.8701 96.5303H120.182L265.701 345.303L252.766 367.629L171.922 233.674H113.714L252.766 466.5L323.909 345.303Z" fill="#0303B5"/>
<path d="M252.766 166.697C229.052 128.424 181.623 51.2409 181.623 48.6894H323.909L252.766 166.697Z" fill="#0303B5"/>
<path d="M349.779 45.5L265.701 189.023L294.805 240.053L336.844 173.076H359.481L362.714 182.644L310.974 271.947L343.312 319.788L427.39 173.076L417.688 150.75L459.727 118.856L505 45.5H443.558L414.455 102.909L385.351 122.045H365.948L407.987 45.5H349.779Z" fill="#0303B5"/>
</svg>
